<svg xmlns="http://www.w3.org/2000/svg" viewBox="0 0 64 64">
  <defs>
    <radialGradient id="amassGlow" cx="0.5" cy="0.5" r="0.5">
      <stop offset="0" stop-color="#22c55e" stop-opacity="0.55"/>
      <stop offset="1" stop-color="#0a0a0a" stop-opacity="0"/>
    </radialGradient>
    <linearGradient id="amassNode" x1="0" y1="0" x2="0" y2="1">
      <stop offset="0" stop-color="#86efac"/>
      <stop offset="1" stop-color="#15803d"/>
    </linearGradient>
  </defs>
  <rect x="0" y="0" width="64" height="64" fill="#0a0a0a"/>
  <circle cx="32" cy="32" r="28" fill="url(#amassGlow)"/>
  <g stroke="#22c55e" stroke-width="0.7" opacity="0.85">
    <line x1="10" y1="10" x2="32" y2="32"/>
    <line x1="54" y1="10" x2="32" y2="32"/>
    <line x1="6" y1="32" x2="32" y2="32"/>
    <line x1="58" y1="32" x2="32" y2="32"/>
    <line x1="10" y1="54" x2="32" y2="32"/>
    <line x1="54" y1="54" x2="32" y2="32"/>
    <line x1="32" y1="6" x2="32" y2="32"/>
    <line x1="32" y1="58" x2="32" y2="32"/>
  </g>
  <g fill="url(#amassNode)" stroke="#0a0a0a" stroke-width="0.6">
    <circle cx="10" cy="10" r="2.6"/>
    <circle cx="54" cy="10" r="2.6"/>
    <circle cx="6" cy="32" r="2.6"/>
    <circle cx="58" cy="32" r="2.6"/>
    <circle cx="10" cy="54" r="2.6"/>
    <circle cx="54" cy="54" r="2.6"/>
    <circle cx="32" cy="6" r="2.6"/>
    <circle cx="32" cy="58" r="2.6"/>
  </g>
  <circle cx="32" cy="32" r="6" fill="#fbbf24" stroke="#7c2d12" stroke-width="1"/>
  <text x="32" y="34" text-anchor="middle" font-family="monospace" font-size="5" fill="#0a0a0a" font-weight="bold">★</text>
  <text x="6" y="14" font-family="monospace" font-size="2.6" fill="#22c55e">www</text>
  <text x="46" y="14" font-family="monospace" font-size="2.6" fill="#22c55e">api</text>
  <text x="2" y="36" font-family="monospace" font-size="2.6" fill="#22c55e">dev</text>
  <text x="50" y="36" font-family="monospace" font-size="2.6" fill="#22c55e">cdn</text>
  <text x="4" y="58" font-family="monospace" font-size="2.6" fill="#22c55e">vpn</text>
  <text x="46" y="58" font-family="monospace" font-size="2.6" fill="#22c55e">mx</text>
  <text x="32" y="62" text-anchor="middle" font-family="monospace" font-size="3.5" fill="#86efac" font-weight="bold">amass.tld</text>
</svg>
