<svg xmlns="http://www.w3.org/2000/svg" viewBox="0 0 64 64">
  <defs>
    <linearGradient id="droid" x1="0" y1="0" x2="0" y2="1">
      <stop offset="0" stop-color="#a4f08a"/>
      <stop offset="1" stop-color="#3a8a26"/>
    </linearGradient>
    <linearGradient id="cog" x1="0" y1="0" x2="0" y2="1">
      <stop offset="0" stop-color="#9ca3af"/>
      <stop offset="1" stop-color="#374151"/>
    </linearGradient>
  </defs>
  <line x1="22" y1="14" x2="18" y2="6" stroke="#3a8a26" stroke-width="2" stroke-linecap="round"/>
  <line x1="42" y1="14" x2="46" y2="6" stroke="#3a8a26" stroke-width="2" stroke-linecap="round"/>
  <path d="M16 28 Q16 14 32 14 Q48 14 48 28 Z" fill="url(#droid)" stroke="#1f4d18" stroke-width="1.5"/>
  <path d="M16 28 Q16 14 32 14 Q40 14 44 18" fill="none" stroke="#fff" stroke-width="1.5" opacity="0.4"/>
  <ellipse cx="24" cy="22" rx="2" ry="2.5" fill="#0a0a0a"/>
  <circle cx="24" cy="21" r="0.8" fill="#fff" opacity="0.7"/>
  <ellipse cx="40" cy="22" rx="2" ry="2.5" fill="#0a0a0a"/>
  <circle cx="40" cy="21" r="0.8" fill="#fff" opacity="0.7"/>
  <rect x="18" y="30" width="28" height="20" rx="2" fill="url(#droid)" stroke="#1f4d18" stroke-width="1.2"/>
  <rect x="18" y="30" width="6" height="20" fill="#fff" fill-opacity="0.15"/>
  <line x1="22" y1="34" x2="42" y2="34" stroke="#1f4d18" stroke-width="0.5" opacity="0.5"/>
  <line x1="22" y1="38" x2="42" y2="38" stroke="#1f4d18" stroke-width="0.5" opacity="0.5"/>
  <line x1="22" y1="42" x2="42" y2="42" stroke="#1f4d18" stroke-width="0.5" opacity="0.5"/>
  <rect x="22" y="50" width="6" height="8" rx="1" fill="url(#droid)" stroke="#1f4d18" stroke-width="1"/>
  <rect x="36" y="50" width="6" height="8" rx="1" fill="url(#droid)" stroke="#1f4d18" stroke-width="1"/>
  <rect x="14" y="32" width="3" height="14" rx="1.2" fill="url(#droid)" stroke="#1f4d18" stroke-width="1"/>
  <rect x="47" y="32" width="3" height="14" rx="1.2" fill="url(#droid)" stroke="#1f4d18" stroke-width="1"/>
  <g transform="translate(56 12)">
    <circle r="6" fill="url(#cog)" stroke="#1a1a1a" stroke-width="0.8"/>
    <circle r="2" fill="#1a1a1a"/>
    <g fill="url(#cog)" stroke="#1a1a1a" stroke-width="0.6">
      <rect x="-1.2" y="-8" width="2.4" height="3"/>
      <rect x="-1.2" y="5" width="2.4" height="3"/>
      <rect x="-8" y="-1.2" width="3" height="2.4"/>
      <rect x="5" y="-1.2" width="3" height="2.4"/>
      <rect x="-1.2" y="-8" width="2.4" height="3" transform="rotate(45)"/>
      <rect x="-1.2" y="5" width="2.4" height="3" transform="rotate(45)"/>
      <rect x="-8" y="-1.2" width="3" height="2.4" transform="rotate(45)"/>
      <rect x="5" y="-1.2" width="3" height="2.4" transform="rotate(45)"/>
    </g>
  </g>
  <g transform="translate(8 52)">
    <circle r="5" fill="url(#cog)" stroke="#1a1a1a" stroke-width="0.8"/>
    <circle r="1.5" fill="#1a1a1a"/>
    <g fill="url(#cog)" stroke="#1a1a1a" stroke-width="0.6">
      <rect x="-1" y="-7" width="2" height="2.5"/>
      <rect x="-1" y="4.5" width="2" height="2.5"/>
      <rect x="-7" y="-1" width="2.5" height="2"/>
      <rect x="4.5" y="-1" width="2.5" height="2"/>
    </g>
  </g>
</svg>
