<svg xmlns="http://www.w3.org/2000/svg" viewBox="0 0 64 64">
  <defs>
    <radialGradient id="radar" cx="0.5" cy="0.5" r="0.5">
      <stop offset="0" stop-color="#22c55e"/>
      <stop offset="0.5" stop-color="#15803d"/>
      <stop offset="1" stop-color="#0a3a1a"/>
    </radialGradient>
    <linearGradient id="sweep" x1="0" y1="0" x2="1" y2="0">
      <stop offset="0" stop-color="#86efac" stop-opacity="0.7"/>
      <stop offset="1" stop-color="#86efac" stop-opacity="0"/>
    </linearGradient>
  </defs>
  <circle cx="32" cy="32" r="28" fill="url(#radar)" stroke="#052e16" stroke-width="1.5"/>
  <circle cx="32" cy="32" r="20" fill="none" stroke="#86efac" stroke-width="1" opacity="0.6"/>
  <circle cx="32" cy="32" r="12" fill="none" stroke="#86efac" stroke-width="1" opacity="0.6"/>
  <circle cx="32" cy="32" r="4" fill="none" stroke="#86efac" stroke-width="1" opacity="0.6"/>
  <line x1="4" y1="32" x2="60" y2="32" stroke="#86efac" stroke-width="0.8" opacity="0.5"/>
  <line x1="32" y1="4" x2="32" y2="60" stroke="#86efac" stroke-width="0.8" opacity="0.5"/>
  <line x1="12" y1="12" x2="52" y2="52" stroke="#86efac" stroke-width="0.5" opacity="0.4"/>
  <line x1="52" y1="12" x2="12" y2="52" stroke="#86efac" stroke-width="0.5" opacity="0.4"/>
  <path d="M32 32 L60 32 A28 28 0 0 0 50 12 Z" fill="url(#sweep)"/>
  <line x1="32" y1="32" x2="56" y2="14" stroke="#22c55e" stroke-width="2" stroke-linecap="round"/>
  <circle cx="32" cy="32" r="2.5" fill="#86efac"/>
  <circle cx="20" cy="40" r="2.5" fill="#dc2626" stroke="#fff" stroke-width="0.5"/>
  <circle cx="44" cy="46" r="2.5" fill="#dc2626" stroke="#fff" stroke-width="0.5"/>
  <circle cx="42" cy="22" r="2.5" fill="#fbbf24" stroke="#fff" stroke-width="0.5"/>
  <circle cx="20" cy="40" r="4" fill="none" stroke="#dc2626" stroke-width="1" opacity="0.5"/>
  <circle cx="44" cy="46" r="4" fill="none" stroke="#dc2626" stroke-width="1" opacity="0.5"/>
</svg>
