<svg xmlns="http://www.w3.org/2000/svg" viewBox="0 0 64 64">
  <defs>
    <linearGradient id="bwChip" x1="0" y1="0" x2="0" y2="1">
      <stop offset="0" stop-color="#1f6feb"/>
      <stop offset="1" stop-color="#0a2540"/>
    </linearGradient>
  </defs>
  <rect x="0" y="0" width="64" height="64" fill="#0a0a0a"/>
  <g font-family="monospace" font-size="2.4" fill="#22c55e" opacity="0.45">
    <text x="2" y="6">7F454C46 02010100</text>
    <text x="2" y="10">00000000 00000000</text>
    <text x="2" y="14">02003E00 01000000</text>
  </g>
  <rect x="10" y="18" width="32" height="32" rx="2" fill="url(#bwChip)" stroke="#22d3ee" stroke-width="1.4"/>
  <g stroke="#fbbf24" stroke-width="1">
    <line x1="10" y1="22" x2="6" y2="22"/>
    <line x1="10" y1="28" x2="6" y2="28"/>
    <line x1="10" y1="34" x2="6" y2="34"/>
    <line x1="10" y1="40" x2="6" y2="40"/>
    <line x1="10" y1="46" x2="6" y2="46"/>
    <line x1="42" y1="22" x2="46" y2="22"/>
    <line x1="42" y1="28" x2="46" y2="28"/>
    <line x1="42" y1="34" x2="46" y2="34"/>
    <line x1="42" y1="40" x2="46" y2="40"/>
    <line x1="42" y1="46" x2="46" y2="46"/>
  </g>
  <g font-family="monospace" font-size="3" fill="#22c55e" font-weight="bold">
    <text x="13" y="26">ELF</text>
    <text x="13" y="32">PNG</text>
    <text x="13" y="38">JFIF</text>
    <text x="13" y="44">PK</text>
  </g>
  <g transform="translate(48 48)">
    <circle cx="0" cy="0" r="9" fill="none" stroke="#fde047" stroke-width="2"/>
    <line x1="6.5" y1="6.5" x2="14" y2="14" stroke="#fde047" stroke-width="2.4" stroke-linecap="round"/>
    <text x="0" y="2" text-anchor="middle" font-family="monospace" font-size="6" fill="#dc2626" font-weight="bold">!</text>
  </g>
  <g font-family="monospace" font-size="2.4" fill="#22c55e" opacity="0.45">
    <text x="2" y="56">DEADBEEF CAFEBABE</text>
    <text x="2" y="60">FEEDFACE 0BADC0DE</text>
  </g>
</svg>
