<svg xmlns="http://www.w3.org/2000/svg" viewBox="0 0 64 64">
  <defs>
    <radialGradient id="tunnel" cx="0.5" cy="0.5" r="0.5">
      <stop offset="0" stop-color="#5cd8ff"/>
      <stop offset="0.4" stop-color="#1f6feb"/>
      <stop offset="0.8" stop-color="#0a1a3a"/>
      <stop offset="1" stop-color="#000000"/>
    </radialGradient>
    <linearGradient id="ring" x1="0" y1="0" x2="0" y2="1">
      <stop offset="0" stop-color="#a78bfa"/>
      <stop offset="0.5" stop-color="#5b21b6"/>
      <stop offset="1" stop-color="#1f0d4d"/>
    </linearGradient>
  </defs>
  <ellipse cx="32" cy="32" rx="28" ry="20" fill="url(#ring)" stroke="#1f0d4d" stroke-width="1.5"/>
  <ellipse cx="32" cy="28" rx="28" ry="8" fill="#fff" fill-opacity="0.18"/>
  <ellipse cx="32" cy="32" rx="22" ry="15" fill="url(#tunnel)" stroke="#0a1a3a" stroke-width="1"/>
  <ellipse cx="32" cy="32" rx="14" ry="9" fill="none" stroke="#5cd8ff" stroke-width="0.8" opacity="0.7"/>
  <ellipse cx="32" cy="32" rx="8" ry="5" fill="none" stroke="#7be4ff" stroke-width="0.8" opacity="0.5"/>
  <ellipse cx="32" cy="32" rx="3" ry="2" fill="#a8eaff" opacity="0.9"/>
  <line x1="14" y1="32" x2="26" y2="32" stroke="#22d3ee" stroke-width="2.5" stroke-linecap="round"/>
  <polygon points="24,28 30,32 24,36" fill="#22d3ee" stroke="#0a4a5e" stroke-width="0.5"/>
  <line x1="50" y1="32" x2="38" y2="32" stroke="#dc2626" stroke-width="2.5" stroke-linecap="round"/>
  <polygon points="40,28 34,32 40,36" fill="#dc2626" stroke="#7c1d1d" stroke-width="0.5"/>
  <circle cx="20" cy="22" r="1" fill="#fbbf24" opacity="0.8"/>
  <circle cx="46" cy="40" r="1" fill="#fbbf24" opacity="0.8"/>
  <circle cx="42" cy="22" r="1" fill="#fbbf24" opacity="0.6"/>
</svg>
