<svg xmlns="http://www.w3.org/2000/svg" viewBox="0 0 64 64">
  <defs>
    <linearGradient id="fox" x1="0" y1="0" x2="0" y2="1">
      <stop offset="0" stop-color="#ffb74d"/>
      <stop offset="1" stop-color="#c2410c"/>
    </linearGradient>
    <linearGradient id="fire" x1="0" y1="1" x2="0" y2="0">
      <stop offset="0" stop-color="#fbbf24"/>
      <stop offset="0.5" stop-color="#dc2626"/>
      <stop offset="1" stop-color="#7c2d12"/>
    </linearGradient>
  </defs>
  <path d="M14 50 Q12 40 16 32 Q22 22 30 22 Q38 22 38 32 Q38 40 32 42 Q26 44 22 50 Z" fill="url(#fox)" stroke="#7a1f0c" stroke-width="1.5"/>
  <path d="M22 22 L18 12 L24 18 Z" fill="url(#fox)" stroke="#7a1f0c" stroke-width="1.2"/>
  <path d="M30 22 L32 8 L36 18 Z" fill="url(#fox)" stroke="#7a1f0c" stroke-width="1.2"/>
  <path d="M14 50 Q26 56 38 50" fill="none" stroke="#7a1f0c" stroke-width="1.5"/>
  <path d="M28 36 Q36 30 44 36 Q52 42 56 36 Q60 30 56 22 Q52 16 56 10 Q60 6 58 2"
        fill="url(#fire)" stroke="#7a1f0c" stroke-width="1.5" stroke-linejoin="round"/>
  <path d="M40 30 Q46 26 50 30 Q52 32 50 36" fill="none" stroke="#fff" stroke-width="1" opacity="0.5"/>
  <path d="M48 22 Q54 18 58 22" fill="none" stroke="#fff" stroke-width="1" opacity="0.5"/>
  <ellipse cx="20" cy="32" rx="2" ry="1.5" fill="#fff"/>
  <circle cx="20" cy="32" r="1" fill="#0a0a0a"/>
  <ellipse cx="20" cy="35" rx="3" ry="1.5" fill="#0a0a0a" opacity="0.3"/>
  <path d="M16 38 Q20 40 24 38" fill="none" stroke="#3a0a04" stroke-width="1.2" stroke-linecap="round"/>
  <path d="M22 18 L20 14 M30 22 L33 14" stroke="#fff" stroke-width="0.8" opacity="0.4"/>
</svg>
