<svg xmlns="http://www.w3.org/2000/svg" viewBox="0 0 64 64">
  <defs>
    <linearGradient id="tuxbody" x1="0" y1="0" x2="0" y2="1">
      <stop offset="0" stop-color="#3a3a3a"/>
      <stop offset="1" stop-color="#0a0a0a"/>
    </linearGradient>
    <linearGradient id="tuxbelly" x1="0" y1="0" x2="0" y2="1">
      <stop offset="0" stop-color="#ffffff"/>
      <stop offset="1" stop-color="#bababa"/>
    </linearGradient>
    <linearGradient id="beak" x1="0" y1="0" x2="0" y2="1">
      <stop offset="0" stop-color="#fbbf24"/>
      <stop offset="1" stop-color="#a16207"/>
    </linearGradient>
  </defs>
  <ellipse cx="24" cy="36" rx="11" ry="13" fill="url(#tuxbody)" stroke="#000" stroke-width="1"/>
  <ellipse cx="24" cy="22" rx="9" ry="10" fill="url(#tuxbody)" stroke="#000" stroke-width="1"/>
  <ellipse cx="24" cy="38" rx="6" ry="9" fill="url(#tuxbelly)"/>
  <ellipse cx="24" cy="26" rx="5" ry="6" fill="url(#tuxbelly)"/>
  <ellipse cx="20" cy="20" rx="2.5" ry="3" fill="#fff"/>
  <ellipse cx="28" cy="20" rx="2.5" ry="3" fill="#fff"/>
  <circle cx="20" cy="21" r="1.2" fill="#0a0a0a"/>
  <circle cx="28" cy="21" r="1.2" fill="#0a0a0a"/>
  <polygon points="22,25 26,25 24,29" fill="url(#beak)" stroke="#5e3a06" stroke-width="0.5"/>
  <ellipse cx="13" cy="44" rx="3" ry="2" fill="url(#tuxbody)" transform="rotate(-30 13 44)"/>
  <ellipse cx="35" cy="44" rx="3" ry="2" fill="url(#tuxbody)" transform="rotate(30 35 44)"/>
  <ellipse cx="20" cy="49" rx="3.5" ry="1.5" fill="url(#beak)" stroke="#5e3a06" stroke-width="0.5"/>
  <ellipse cx="28" cy="49" rx="3.5" ry="1.5" fill="url(#beak)" stroke="#5e3a06" stroke-width="0.5"/>
  <circle cx="50" cy="22" r="9" fill="none" stroke="#7a7a7a" stroke-width="2"/>
  <circle cx="50" cy="22" r="9" fill="#5cd8ff" fill-opacity="0.15"/>
  <circle cx="47" cy="19" r="3" fill="#fff" opacity="0.5"/>
  <line x1="56.4" y1="28.4" x2="62" y2="34" stroke="#3a3a3a" stroke-width="3" stroke-linecap="round"/>
</svg>
