<svg xmlns="http://www.w3.org/2000/svg" viewBox="0 0 64 64">
  <defs>
    <linearGradient id="cam" x1="0" y1="0" x2="0" y2="1">
      <stop offset="0" stop-color="#3a3a3a"/>
      <stop offset="1" stop-color="#0a0a0a"/>
    </linearGradient>
    <radialGradient id="lens" cx="0.5" cy="0.5" r="0.5">
      <stop offset="0" stop-color="#5cd8ff"/>
      <stop offset="0.5" stop-color="#1a4d8a"/>
      <stop offset="1" stop-color="#0a1a3a"/>
    </radialGradient>
  </defs>
  <rect x="4" y="20" width="48" height="30" rx="2" fill="url(#cam)" stroke="#0a0a0a" stroke-width="1"/>
  <rect x="4" y="20" width="48" height="6" fill="#fff" fill-opacity="0.1"/>
  <circle cx="14" cy="14" r="6" fill="url(#cam)" stroke="#0a0a0a" stroke-width="1"/>
  <rect x="11" y="11" width="6" height="6" fill="#a16207"/>
  <rect x="11" y="11" width="6" height="2" fill="#fde68a"/>
  <circle cx="42" cy="14" r="6" fill="url(#cam)" stroke="#0a0a0a" stroke-width="1"/>
  <rect x="39" y="11" width="6" height="6" fill="#a16207"/>
  <rect x="39" y="11" width="6" height="2" fill="#fde68a"/>
  <circle cx="32" cy="35" r="11" fill="url(#cam)" stroke="#0a0a0a" stroke-width="1"/>
  <circle cx="32" cy="35" r="9" fill="url(#lens)"/>
  <circle cx="32" cy="35" r="6" fill="none" stroke="#0a0a0a" stroke-width="1"/>
  <circle cx="32" cy="35" r="3" fill="#0a0a0a"/>
  <circle cx="29" cy="32" r="2" fill="#fff" opacity="0.5"/>
  <circle cx="49" cy="26" r="2.5" fill="#dc2626" stroke="#7c1d1d" stroke-width="0.5"/>
  <circle cx="49" cy="26" r="0.8" fill="#fbb6ce"/>
  <text x="10" y="48" font-family="monospace" font-size="4" fill="#fde68a" font-weight="bold">EXIF</text>
</svg>
