<svg xmlns="http://www.w3.org/2000/svg" viewBox="0 0 64 64">
  <defs>
    <linearGradient id="scope" x1="0" y1="0" x2="1" y2="1">
      <stop offset="0" stop-color="#fbbf24"/>
      <stop offset="1" stop-color="#92400e"/>
    </linearGradient>
    <linearGradient id="scope2" x1="0" y1="0" x2="0" y2="1">
      <stop offset="0" stop-color="#1e3a8a"/>
      <stop offset="1" stop-color="#0a1a3a"/>
    </linearGradient>
    <radialGradient id="lensf" cx="0.5" cy="0.5" r="0.5">
      <stop offset="0" stop-color="#5cd8ff"/>
      <stop offset="1" stop-color="#0a1a3a"/>
    </radialGradient>
  </defs>
  <g transform="rotate(-25 32 32)">
    <rect x="8" y="22" width="36" height="20" rx="3" fill="url(#scope2)" stroke="#0a0a0a" stroke-width="1"/>
    <rect x="8" y="22" width="36" height="6" fill="#fff" fill-opacity="0.15"/>
    <rect x="6" y="20" width="6" height="24" fill="url(#scope)" stroke="#5e3a06" stroke-width="1"/>
    <rect x="40" y="22" width="6" height="20" fill="url(#scope2)" stroke="#0a0a0a" stroke-width="1"/>
    <rect x="20" y="22" width="2" height="20" fill="#fbbf24" opacity="0.4"/>
    <rect x="30" y="22" width="2" height="20" fill="#fbbf24" opacity="0.4"/>
    <circle cx="46" cy="32" r="3.5" fill="url(#lensf)" stroke="#0a0a0a" stroke-width="0.8"/>
    <circle cx="46" cy="32" r="1.5" fill="#fff" opacity="0.6"/>
  </g>
  <line x1="48" y1="48" x2="60" y2="60" stroke="#dc2626" stroke-width="2.5" stroke-linecap="round"/>
  <circle cx="56" cy="56" r="3" fill="none" stroke="#dc2626" stroke-width="1.5"/>
  <line x1="54" y1="56" x2="58" y2="56" stroke="#dc2626" stroke-width="1"/>
  <line x1="56" y1="54" x2="56" y2="58" stroke="#dc2626" stroke-width="1"/>
</svg>
