<svg xmlns="http://www.w3.org/2000/svg" viewBox="0 0 64 64">
  <defs>
    <linearGradient id="p1" x1="0" y1="0" x2="1" y2="1">
      <stop offset="0" stop-color="#7be4ff"/>
      <stop offset="1" stop-color="#1a6f9c"/>
    </linearGradient>
    <linearGradient id="p2" x1="0" y1="0" x2="1" y2="1">
      <stop offset="0" stop-color="#fbb6ce"/>
      <stop offset="1" stop-color="#9d174d"/>
    </linearGradient>
    <linearGradient id="p3" x1="0" y1="0" x2="1" y2="1">
      <stop offset="0" stop-color="#fde68a"/>
      <stop offset="1" stop-color="#a16207"/>
    </linearGradient>
    <linearGradient id="p4" x1="0" y1="0" x2="1" y2="1">
      <stop offset="0" stop-color="#86efac"/>
      <stop offset="1" stop-color="#15803d"/>
    </linearGradient>
  </defs>
  <path d="M6 6 H26 Q26 14 32 14 Q38 14 38 6 H56 V26 Q48 26 48 32 Q48 38 56 38 V46
           Q40 46 40 50 Q40 54 36 54 Q32 54 32 46 H6 V32 Q14 32 14 26 Q14 20 6 20 Z"
        fill="url(#p1)" stroke="#0a3a52" stroke-width="1.5" stroke-linejoin="round"/>
  <path d="M38 6 H56 V20 Q48 20 48 26 Q48 32 56 32 V46 H40 Q40 38 34 38 Q28 38 28 46 V32"
        fill="url(#p2)" stroke="#5d0e2e" stroke-width="1.5" stroke-linejoin="round" opacity="0.95"/>
  <path d="M30 32 H56 V40 Q48 40 48 46 Q48 52 56 52 V58 H30"
        fill="url(#p3)" stroke="#5e3a06" stroke-width="1.5" stroke-linejoin="round" opacity="0.92"/>
  <path d="M6 38 H22 Q22 46 28 46 Q34 46 34 38 H58 V58 H6 Z"
        fill="url(#p4)" stroke="#0a3a1a" stroke-width="1.5" stroke-linejoin="round" opacity="0.55"/>
  <path d="M6 6 H26 Q26 14 32 14 V20 H14 Q14 12 6 12 Z" fill="#fff" fill-opacity="0.25"/>
  <circle cx="34" cy="24" r="2" fill="#fff" opacity="0.6"/>
  <circle cx="50" cy="44" r="2" fill="#fff" opacity="0.5"/>
  <circle cx="16" cy="48" r="1.5" fill="#fff" opacity="0.6"/>
</svg>
