<svg xmlns="http://www.w3.org/2000/svg" viewBox="0 0 64 64">
  <defs>
    <linearGradient id="jhHat" x1="0" y1="0" x2="0" y2="1">
      <stop offset="0" stop-color="#1f2937"/>
      <stop offset="1" stop-color="#0a0a0a"/>
    </linearGradient>
    <linearGradient id="jhBand" x1="0" y1="0" x2="0" y2="1">
      <stop offset="0" stop-color="#dc2626"/>
      <stop offset="1" stop-color="#7f1d1d"/>
    </linearGradient>
  </defs>
  <rect x="0" y="0" width="64" height="64" fill="#0a0a0a"/>
  <g font-family="monospace" font-size="2.6" fill="#22c55e" opacity="0.55">
    <text x="2" y="7">$1$saltsalt$XSF</text>
    <text x="2" y="11">5f4dcc3b5aa765d6</text>
    <text x="2" y="15">e9d71f5ee7c92d6d</text>
    <text x="2" y="58">[#] cracked: hello</text>
    <text x="2" y="62">[#] cracked: 12345</text>
  </g>
  <ellipse cx="32" cy="42" rx="26" ry="4.5" fill="url(#jhHat)" stroke="#0a0a0a" stroke-width="1.4"/>
  <path d="M14 42 Q14 22 32 22 Q50 22 50 42 Q50 38 32 38 Q14 38 14 42 Z"
        fill="url(#jhHat)" stroke="#0a0a0a" stroke-width="1.4"/>
  <path d="M14 42 Q32 38 50 42" fill="none" stroke="url(#jhBand)" stroke-width="3"/>
  <g transform="translate(32 30)">
    <rect x="-5" y="-3" width="10" height="9" rx="1.5" fill="#9ca3af" stroke="#0a0a0a" stroke-width="0.8"/>
    <path d="M-3 -3 Q-3 -8 0 -8 Q3 -8 3 -3" fill="none" stroke="#0a0a0a" stroke-width="1.4"/>
    <circle cx="0" cy="1" r="1.2" fill="#fbbf24"/>
    <rect x="-0.5" y="1.5" width="1" height="2.5" fill="#fbbf24"/>
  </g>
  <g transform="translate(32 30)">
    <line x1="-7" y1="-1" x2="-12" y2="-4" stroke="#fde047" stroke-width="1" stroke-linecap="round" opacity="0.85"/>
    <line x1="-8" y1="2" x2="-13" y2="2" stroke="#fde047" stroke-width="1" stroke-linecap="round" opacity="0.85"/>
    <line x1="-7" y1="5" x2="-12" y2="8" stroke="#fde047" stroke-width="1" stroke-linecap="round" opacity="0.85"/>
    <line x1="7" y1="-1" x2="12" y2="-4" stroke="#fde047" stroke-width="1" stroke-linecap="round" opacity="0.85"/>
    <line x1="8" y1="2" x2="13" y2="2" stroke="#fde047" stroke-width="1" stroke-linecap="round" opacity="0.85"/>
    <line x1="7" y1="5" x2="12" y2="8" stroke="#fde047" stroke-width="1" stroke-linecap="round" opacity="0.85"/>
  </g>
  <text x="32" y="20" text-anchor="middle" font-family="monospace" font-size="3.8" fill="#dc2626" font-weight="bold">/etc/shadow</text>
</svg>
