<svg xmlns="http://www.w3.org/2000/svg" viewBox="0 0 64 64">
  <defs>
    <linearGradient id="pcCloud" x1="0" y1="0" x2="0" y2="1">
      <stop offset="0" stop-color="#ff9900"/>
      <stop offset="1" stop-color="#7c2d12"/>
    </linearGradient>
    <linearGradient id="pcKey" x1="0" y1="0" x2="0" y2="1">
      <stop offset="0" stop-color="#fde047"/>
      <stop offset="1" stop-color="#a16207"/>
    </linearGradient>
  </defs>
  <rect x="0" y="0" width="64" height="64" fill="#0a0a0a"/>
  <g font-family="monospace" font-size="2.4" fill="#22c55e" opacity="0.4">
    <text x="2" y="6">aws sts assume-role</text>
    <text x="2" y="10">--role-arn arn:iam</text>
    <text x="2" y="62">[+] Privesc found!</text>
  </g>
  <path d="M16 28 Q12 24 16 20 Q18 14 26 16 Q30 10 38 14 Q46 12 48 20 Q54 22 52 30 Q56 34 50 38 L18 38 Q10 36 16 28 Z"
        fill="url(#pcCloud)" stroke="#3a0a0a" stroke-width="1.4"/>
  <text x="32" y="32" text-anchor="middle" font-family="monospace" font-size="6" font-weight="bold" fill="#0a0a0a">AWS</text>
  <g transform="translate(32 48)">
    <rect x="-3" y="0" width="6" height="9" rx="1" fill="url(#pcKey)" stroke="#7c2d12" stroke-width="0.8"/>
    <line x1="-2" y1="3" x2="2" y2="3" stroke="#3a1d04" stroke-width="0.8"/>
    <line x1="-2" y1="6" x2="2" y2="6" stroke="#3a1d04" stroke-width="0.8"/>
    <circle cx="0" cy="-2" r="3" fill="none" stroke="url(#pcKey)" stroke-width="2"/>
  </g>
  <line x1="20" y1="42" x2="14" y2="50" stroke="#dc2626" stroke-width="1.4" stroke-linecap="round"/>
  <line x1="44" y1="42" x2="50" y2="50" stroke="#dc2626" stroke-width="1.4" stroke-linecap="round"/>
  <text x="14" y="56" font-family="monospace" font-size="3" fill="#dc2626" font-weight="bold">IAM</text>
  <text x="50" y="56" font-family="monospace" font-size="3" fill="#dc2626" font-weight="bold">S3</text>
</svg>
