<svg xmlns="http://www.w3.org/2000/svg" viewBox="0 0 64 64">
  <defs>
    <linearGradient id="pwTerm" x1="0" y1="0" x2="0" y2="1">
      <stop offset="0" stop-color="#0d1117"/>
      <stop offset="1" stop-color="#0a0a0a"/>
    </linearGradient>
    <radialGradient id="pwBug" cx="0.5" cy="0.5" r="0.5">
      <stop offset="0" stop-color="#dc2626"/>
      <stop offset="1" stop-color="#3a0a0a"/>
    </radialGradient>
  </defs>
  <rect x="0" y="0" width="64" height="64" fill="#0a0a0a"/>
  <rect x="3" y="6" width="58" height="52" rx="2" fill="url(#pwTerm)" stroke="#22c55e" stroke-width="1.4"/>
  <rect x="3" y="6" width="58" height="5" fill="#15803d"/>
  <text x="6" y="10" font-family="monospace" font-size="3" fill="#0a0a0a" font-weight="bold">pwndbg ▶</text>
  <g font-family="monospace" font-size="3" font-weight="bold">
    <text x="6" y="17" fill="#22c55e">► RAX</text>
    <text x="22" y="17" fill="#fbbf24">0x4141414141</text>
    <text x="6" y="22" fill="#22c55e">  RIP</text>
    <text x="22" y="22" fill="#dc2626">0x42424242</text>
    <text x="6" y="27" fill="#22c55e">  RSP</text>
    <text x="22" y="27" fill="#86efac">0x7ffe800</text>
    <text x="6" y="34" fill="#22d3ee">─ STACK ─</text>
    <text x="6" y="39" fill="#86efac">/bin/sh ◀</text>
    <text x="6" y="44" fill="#86efac">SYSTEM()</text>
    <text x="6" y="49" fill="#86efac">RET2LIBC</text>
  </g>
  <g transform="translate(50 38)">
    <ellipse cx="0" cy="0" rx="6" ry="8" fill="url(#pwBug)" stroke="#0a0a0a" stroke-width="1"/>
    <ellipse cx="0" cy="-4" rx="3.5" ry="2.5" fill="url(#pwBug)" stroke="#0a0a0a" stroke-width="0.6"/>
    <line x1="-1.4" y1="-7" x2="-3" y2="-10" stroke="#0a0a0a" stroke-width="0.8"/>
    <line x1="1.4" y1="-7" x2="3" y2="-10" stroke="#0a0a0a" stroke-width="0.8"/>
    <line x1="-6" y1="-2" x2="-9" y2="-3" stroke="#0a0a0a" stroke-width="0.8"/>
    <line x1="-6" y1="0" x2="-10" y2="0" stroke="#0a0a0a" stroke-width="0.8"/>
    <line x1="-6" y1="2" x2="-9" y2="4" stroke="#0a0a0a" stroke-width="0.8"/>
    <line x1="6" y1="-2" x2="9" y2="-3" stroke="#0a0a0a" stroke-width="0.8"/>
    <line x1="6" y1="0" x2="10" y2="0" stroke="#0a0a0a" stroke-width="0.8"/>
    <line x1="6" y1="2" x2="9" y2="4" stroke="#0a0a0a" stroke-width="0.8"/>
    <circle cx="-1.4" cy="-4" r="0.8" fill="#fde047"/>
    <circle cx="1.4" cy="-4" r="0.8" fill="#fde047"/>
  </g>
  <rect x="6" y="51" width="2.5" height="3" fill="#22c55e"/>
  <text x="11" y="54" font-family="monospace" font-size="3" fill="#22c55e" font-weight="bold">break *0x401</text>
</svg>
