<svg xmlns="http://www.w3.org/2000/svg" viewBox="0 0 64 64">
  <defs>
    <linearGradient id="rop1" x1="0" y1="0" x2="0" y2="1">
      <stop offset="0" stop-color="#a78bfa"/>
      <stop offset="1" stop-color="#5b21b6"/>
    </linearGradient>
    <linearGradient id="rop2" x1="0" y1="0" x2="0" y2="1">
      <stop offset="0" stop-color="#f472b6"/>
      <stop offset="1" stop-color="#9d174d"/>
    </linearGradient>
    <linearGradient id="rop3" x1="0" y1="0" x2="0" y2="1">
      <stop offset="0" stop-color="#22d3ee"/>
      <stop offset="1" stop-color="#0e7490"/>
    </linearGradient>
  </defs>
  <ellipse cx="20" cy="32" rx="11" ry="6.5" fill="url(#rop1)" stroke="#3b1474" stroke-width="1.4" transform="rotate(-30 20 32)"/>
  <ellipse cx="20" cy="32" rx="11" ry="2" fill="#fff" fill-opacity="0.3" transform="rotate(-30 20 32)"/>
  <ellipse cx="32" cy="32" rx="11" ry="6.5" fill="url(#rop2)" stroke="#5d0e2e" stroke-width="1.4" transform="rotate(30 32 32)"/>
  <ellipse cx="32" cy="32" rx="11" ry="2" fill="#fff" fill-opacity="0.3" transform="rotate(30 32 32)"/>
  <ellipse cx="44" cy="32" rx="11" ry="6.5" fill="url(#rop3)" stroke="#0a4a5e" stroke-width="1.4" transform="rotate(-30 44 32)"/>
  <ellipse cx="44" cy="32" rx="11" ry="2" fill="#fff" fill-opacity="0.3" transform="rotate(-30 44 32)"/>
  <circle cx="14" cy="38" r="1.5" fill="#fff" opacity="0.7"/>
  <circle cx="38" cy="26" r="1.5" fill="#fff" opacity="0.7"/>
  <circle cx="50" cy="38" r="1.5" fill="#fff" opacity="0.7"/>
</svg>
