<svg xmlns="http://www.w3.org/2000/svg" viewBox="0 0 64 64">
  <defs>
    <linearGradient id="chain" x1="0" y1="0" x2="0" y2="1">
      <stop offset="0" stop-color="#bababa"/>
      <stop offset="0.5" stop-color="#7a7a7a"/>
      <stop offset="1" stop-color="#3a3a3a"/>
    </linearGradient>
  </defs>
  <ellipse cx="14" cy="14" rx="6" ry="4" fill="none" stroke="url(#chain)" stroke-width="3.5" transform="rotate(-45 14 14)"/>
  <ellipse cx="14" cy="14" rx="6" ry="4" fill="none" stroke="#fff" stroke-width="0.8" opacity="0.4" transform="rotate(-45 14 14)"/>
  <ellipse cx="22" cy="22" rx="6" ry="4" fill="none" stroke="url(#chain)" stroke-width="3.5" transform="rotate(-45 22 22)"/>
  <ellipse cx="22" cy="22" rx="6" ry="4" fill="none" stroke="#fff" stroke-width="0.8" opacity="0.4" transform="rotate(-45 22 22)"/>
  <ellipse cx="30" cy="30" rx="6" ry="4" fill="none" stroke="url(#chain)" stroke-width="3.5" transform="rotate(-45 30 30)"/>
  <ellipse cx="30" cy="30" rx="6" ry="4" fill="none" stroke="#fff" stroke-width="0.8" opacity="0.4" transform="rotate(-45 30 30)"/>
  <line x1="36" y1="36" x2="42" y2="42" stroke="#dc2626" stroke-width="3" stroke-linecap="round"/>
  <polygon points="38,34 46,38 42,42 36,40" fill="#fbbf24" stroke="#92400e" stroke-width="0.8"/>
  <polygon points="42,38 50,42 46,46 38,42" fill="#dc2626" stroke="#7c1d1d" stroke-width="0.8"/>
  <ellipse cx="50" cy="50" rx="6" ry="4" fill="none" stroke="url(#chain)" stroke-width="3.5" transform="rotate(-45 50 50)"/>
  <ellipse cx="50" cy="50" rx="6" ry="4" fill="none" stroke="#fff" stroke-width="0.8" opacity="0.4" transform="rotate(-45 50 50)"/>
  <circle cx="42" cy="42" r="2" fill="#fbbf24"/>
</svg>
