<svg xmlns="http://www.w3.org/2000/svg" viewBox="0 0 64 64">
  <defs>
    <linearGradient id="rsCrab" x1="0" y1="0" x2="0" y2="1">
      <stop offset="0" stop-color="#fb923c"/>
      <stop offset="1" stop-color="#7c2d12"/>
    </linearGradient>
  </defs>
  <rect x="0" y="0" width="64" height="64" fill="#0a0a0a"/>
  <g font-family="monospace" font-size="2.6" fill="#22c55e" opacity="0.55">
    <text x="2" y="7">22/tcp open ssh</text>
    <text x="2" y="11">80/tcp open http</text>
    <text x="2" y="15">443/tcp open https</text>
    <text x="2" y="56">3306/tcp open mysql</text>
    <text x="2" y="60">5432/tcp open pgsql</text>
  </g>
  <g transform="translate(32 35)">
    <ellipse cx="0" cy="2" rx="14" ry="9" fill="url(#rsCrab)" stroke="#3a0a0a" stroke-width="1.4"/>
    <ellipse cx="-6" cy="-2" rx="3" ry="3" fill="url(#rsCrab)" stroke="#3a0a0a" stroke-width="1"/>
    <ellipse cx="6" cy="-2" rx="3" ry="3" fill="url(#rsCrab)" stroke="#3a0a0a" stroke-width="1"/>
    <circle cx="-6" cy="-2" r="1.2" fill="#0a0a0a"/>
    <circle cx="6" cy="-2" r="1.2" fill="#0a0a0a"/>
    <circle cx="-5.6" cy="-2.3" r="0.4" fill="#fff"/>
    <circle cx="6.4" cy="-2.3" r="0.4" fill="#fff"/>
    <path d="M-14 0 L-22 -3 L-19 1 L-22 4 Z" fill="url(#rsCrab)" stroke="#3a0a0a" stroke-width="0.8"/>
    <path d="M14 0 L22 -3 L19 1 L22 4 Z" fill="url(#rsCrab)" stroke="#3a0a0a" stroke-width="0.8"/>
    <line x1="-12" y1="6" x2="-15" y2="11" stroke="#3a0a0a" stroke-width="1.2"/>
    <line x1="-7" y1="9" x2="-9" y2="14" stroke="#3a0a0a" stroke-width="1.2"/>
    <line x1="-2" y1="10" x2="-3" y2="14" stroke="#3a0a0a" stroke-width="1.2"/>
    <line x1="2" y1="10" x2="3" y2="14" stroke="#3a0a0a" stroke-width="1.2"/>
    <line x1="7" y1="9" x2="9" y2="14" stroke="#3a0a0a" stroke-width="1.2"/>
    <line x1="12" y1="6" x2="15" y2="11" stroke="#3a0a0a" stroke-width="1.2"/>
  </g>
  <g font-family="monospace" font-size="2.6" font-weight="bold">
    <text x="6" y="22" fill="#fde047">[1-65535]</text>
    <text x="42" y="22" fill="#22c55e">▶▶▶</text>
  </g>
  <text x="32" y="60" text-anchor="middle" font-family="monospace" font-size="3.6" fill="#fb923c" font-weight="bold">⚙ rust ⚙</text>
</svg>
