<svg xmlns="http://www.w3.org/2000/svg" viewBox="0 0 64 64">
  <defs>
    <linearGradient id="ssLens" x1="0" y1="0" x2="1" y2="1">
      <stop offset="0" stop-color="#a8eaff" stop-opacity="0.55"/>
      <stop offset="1" stop-color="#22c55e" stop-opacity="0.25"/>
    </linearGradient>
    <radialGradient id="ssSkull" cx="0.5" cy="0.4" r="0.5">
      <stop offset="0" stop-color="#fde047"/>
      <stop offset="1" stop-color="#7f1d1d"/>
    </radialGradient>
  </defs>
  <rect x="0" y="0" width="64" height="64" fill="#0a0a0a"/>
  <g font-family="monospace" font-size="2.4" fill="#22c55e" opacity="0.5">
    <text x="2" y="6">CVE-2024-12345</text>
    <text x="2" y="10">CVE-2023-87654</text>
    <text x="2" y="14">CVE-2022-44321</text>
    <text x="2" y="62">EDB-ID: 50867</text>
    <text x="2" y="58">EDB-ID: 49216</text>
  </g>
  <g transform="translate(28 30)">
    <circle cx="0" cy="0" r="14" fill="url(#ssLens)" stroke="#fde047" stroke-width="2.4"/>
    <circle cx="0" cy="0" r="14" fill="none" stroke="#fff" stroke-width="0.6" opacity="0.5"/>
    <line x1="10" y1="10" x2="20" y2="22" stroke="#fde047" stroke-width="3.2" stroke-linecap="round"/>
    <line x1="10" y1="10" x2="20" y2="22" stroke="#7c5a06" stroke-width="1" stroke-linecap="round"/>
    <g transform="translate(0 0)">
      <ellipse cx="0" cy="-1" rx="6" ry="6" fill="url(#ssSkull)" stroke="#3a0a0a" stroke-width="0.8"/>
      <ellipse cx="-2" cy="0" rx="1.4" ry="1.6" fill="#0a0a0a"/>
      <ellipse cx="2" cy="0" rx="1.4" ry="1.6" fill="#0a0a0a"/>
      <path d="M-3 4 L-2 6 L-1 4 L0 6 L1 4 L2 6 L3 4 Z" fill="#0a0a0a"/>
      <line x1="-3" y1="-3" x2="-1" y2="-3" stroke="#0a0a0a" stroke-width="0.4"/>
      <line x1="1" y1="-3" x2="3" y2="-3" stroke="#0a0a0a" stroke-width="0.4"/>
    </g>
  </g>
  <text x="32" y="62" text-anchor="middle" font-family="monospace" font-size="3.6" fill="#dc2626" font-weight="bold">searchsploit</text>
</svg>
