<svg xmlns="http://www.w3.org/2000/svg" viewBox="0 0 64 64">
  <defs>
    <linearGradient id="slvShard" x1="0" y1="0" x2="0" y2="1">
      <stop offset="0" stop-color="#f3f4f6"/>
      <stop offset="0.5" stop-color="#9ca3af"/>
      <stop offset="1" stop-color="#1f2937"/>
    </linearGradient>
    <radialGradient id="slvCore" cx="0.5" cy="0.5" r="0.5">
      <stop offset="0" stop-color="#fde047"/>
      <stop offset="0.5" stop-color="#dc2626"/>
      <stop offset="1" stop-color="#3a0a0a"/>
    </radialGradient>
    <linearGradient id="slvBeam" x1="0" y1="0" x2="1" y2="0">
      <stop offset="0" stop-color="#dc2626" stop-opacity="0"/>
      <stop offset="0.5" stop-color="#dc2626" stop-opacity="0.9"/>
      <stop offset="1" stop-color="#dc2626" stop-opacity="0"/>
    </linearGradient>
  </defs>
  <rect x="0" y="0" width="64" height="64" fill="#0a0a0a"/>
  <g font-family="monospace" font-size="2.4" fill="#22c55e" opacity="0.5">
    <text x="2" y="6">[server] sliver</text>
    <text x="2" y="10">[implant] BEACON</text>
    <text x="2" y="14">mtls 0.0.0.0:8888</text>
    <text x="2" y="58">[+] callback</text>
    <text x="2" y="62">[+] session 1</text>
  </g>
  <rect x="2" y="30" width="60" height="2" fill="url(#slvBeam)" opacity="0.55"/>
  <g transform="translate(32 32)">
    <polygon points="-13,-2 -3,-13 13,2 3,13" fill="url(#slvShard)" stroke="#0a0a0a" stroke-width="0.7"/>
    <polygon points="-13,-2 -3,-13 0,0" fill="#fff" opacity="0.18"/>
    <polygon points="13,2 3,13 0,0" fill="#0a0a0a" opacity="0.35"/>
    <line x1="-3" y1="-13" x2="13" y2="2" stroke="#fff" stroke-width="0.4" opacity="0.6"/>
    <line x1="-13" y1="-2" x2="3" y2="13" stroke="#0a0a0a" stroke-width="0.4" opacity="0.6"/>
    <circle cx="0" cy="0" r="3.6" fill="url(#slvCore)" stroke="#0a0a0a" stroke-width="0.5"/>
    <circle cx="0" cy="0" r="1.4" fill="#fde047"/>
  </g>
  <g stroke="#dc2626" stroke-width="0.5" fill="none" opacity="0.7">
    <path d="M 32 32 L 12 12"/>
    <path d="M 32 32 L 52 12"/>
    <path d="M 32 32 L 12 52"/>
    <path d="M 32 32 L 52 52"/>
  </g>
  <g fill="#dc2626" stroke="#7f1d1d" stroke-width="0.3">
    <circle cx="12" cy="12" r="1.4"/>
    <circle cx="52" cy="12" r="1.4"/>
    <circle cx="12" cy="52" r="1.4"/>
    <circle cx="52" cy="52" r="1.4"/>
  </g>
  <g transform="translate(50 50)">
    <rect x="-7" y="-3.2" width="14" height="6.4" rx="0.6" fill="#0d1117" stroke="#dc2626" stroke-width="0.5"/>
    <text x="0" y="1.4" text-anchor="middle" font-family="monospace" font-size="3.4" fill="#dc2626" font-weight="bold">C2</text>
  </g>
  <text x="32" y="60" text-anchor="middle" font-family="monospace" font-size="3.6" fill="#dc2626" font-weight="bold">SLIVER</text>
</svg>
