<svg xmlns="http://www.w3.org/2000/svg" viewBox="0 0 64 64">
  <defs>
    <linearGradient id="d3" x1="0" y1="0" x2="0" y2="1">
      <stop offset="0" stop-color="#a8eaff"/>
      <stop offset="0.5" stop-color="#3aa8d8"/>
      <stop offset="1" stop-color="#0a4a66"/>
    </linearGradient>
  </defs>
  <polygon points="32,4 14,18 22,40 32,52 42,40 50,18" fill="url(#d3)" stroke="#0a4a66" stroke-width="1.5" stroke-linejoin="round"/>
  <polygon points="32,4 14,18 32,18" fill="#fff" fill-opacity="0.4"/>
  <polygon points="32,18 14,18 22,40" fill="#fff" fill-opacity="0.18"/>
  <polygon points="32,18 22,40 32,52" fill="#000" fill-opacity="0.15"/>
  <polygon points="32,18 32,52 42,40" fill="#000" fill-opacity="0.25"/>
  <polygon points="32,18 50,18 42,40" fill="#000" fill-opacity="0.1"/>
  <line x1="32" y1="4" x2="32" y2="52" stroke="#0a4a66" stroke-width="1.2"/>
  <line x1="14" y1="18" x2="50" y2="18" stroke="#0a4a66" stroke-width="1.2"/>
  <line x1="22" y1="40" x2="42" y2="40" stroke="#0a4a66" stroke-width="0.8"/>
  <circle cx="26" cy="14" r="2" fill="#fff" fill-opacity="0.85"/>
  <circle cx="38" cy="22" r="1.4" fill="#fff" fill-opacity="0.6"/>
</svg>
