<svg xmlns="http://www.w3.org/2000/svg" viewBox="0 0 64 64">
  <defs>
    <linearGradient id="wheat" x1="0" y1="0" x2="0" y2="1">
      <stop offset="0" stop-color="#fde68a"/>
      <stop offset="1" stop-color="#a16207"/>
    </linearGradient>
    <linearGradient id="blade" x1="0" y1="0" x2="0" y2="1">
      <stop offset="0" stop-color="#e8e8e8"/>
      <stop offset="1" stop-color="#7a7a7a"/>
    </linearGradient>
    <linearGradient id="handle" x1="0" y1="0" x2="0" y2="1">
      <stop offset="0" stop-color="#b97a3f"/>
      <stop offset="1" stop-color="#5e3a1c"/>
    </linearGradient>
  </defs>
  <rect x="6" y="56" width="52" height="3" fill="url(#wheat)"/>
  <g transform="translate(10 56)">
    <line x1="0" y1="0" x2="0" y2="-10" stroke="url(#wheat)" stroke-width="1.5"/>
    <ellipse cx="-1" cy="-12" rx="1" ry="2" fill="url(#wheat)"/>
    <ellipse cx="1" cy="-14" rx="1" ry="2" fill="url(#wheat)"/>
    <ellipse cx="-1" cy="-16" rx="1" ry="2" fill="url(#wheat)"/>
  </g>
  <g transform="translate(20 56)">
    <line x1="0" y1="0" x2="0" y2="-12" stroke="url(#wheat)" stroke-width="1.5"/>
    <ellipse cx="-1" cy="-14" rx="1" ry="2" fill="url(#wheat)"/>
    <ellipse cx="1" cy="-16" rx="1" ry="2" fill="url(#wheat)"/>
    <ellipse cx="-1" cy="-18" rx="1" ry="2" fill="url(#wheat)"/>
  </g>
  <g transform="translate(34 56)">
    <line x1="0" y1="0" x2="0" y2="-12" stroke="url(#wheat)" stroke-width="1.5"/>
    <ellipse cx="-1" cy="-14" rx="1" ry="2" fill="url(#wheat)"/>
    <ellipse cx="1" cy="-16" rx="1" ry="2" fill="url(#wheat)"/>
    <ellipse cx="-1" cy="-18" rx="1" ry="2" fill="url(#wheat)"/>
  </g>
  <g transform="translate(48 56)">
    <line x1="0" y1="0" x2="0" y2="-10" stroke="url(#wheat)" stroke-width="1.5"/>
    <ellipse cx="-1" cy="-12" rx="1" ry="2" fill="url(#wheat)"/>
    <ellipse cx="1" cy="-14" rx="1" ry="2" fill="url(#wheat)"/>
    <ellipse cx="-1" cy="-16" rx="1" ry="2" fill="url(#wheat)"/>
  </g>
  <path d="M52 8 C36 12 22 28 18 50 L24 50 C28 32 38 18 52 14 Z"
        fill="url(#blade)" stroke="#3a3a3a" stroke-width="1.5" stroke-linejoin="round"/>
  <path d="M52 8 C42 11 32 18 26 30" fill="none" stroke="#fff" stroke-width="1" opacity="0.6"/>
  <line x1="52" y1="8" x2="20" y2="48" stroke="url(#handle)" stroke-width="3.5" stroke-linecap="round"/>
  <line x1="52" y1="8" x2="20" y2="48" stroke="#fff" stroke-width="0.8" opacity="0.3"/>
  <text x="56" y="14" font-family="monospace" font-size="6" fill="#22c55e" font-weight="bold">@</text>
  <circle cx="56" cy="11" r="3.5" fill="none" stroke="#22c55e" stroke-width="1"/>
</svg>
