<svg xmlns="http://www.w3.org/2000/svg" viewBox="0 0 64 64">
  <defs>
    <linearGradient id="hex" x1="0" y1="0" x2="0" y2="1">
      <stop offset="0" stop-color="#ffd76b"/>
      <stop offset="1" stop-color="#a86a18"/>
    </linearGradient>
  </defs>
  <polygon points="32,6 50,16 50,36 32,46 14,36 14,16" fill="url(#hex)" stroke="#5e3a0a" stroke-width="1.5" stroke-linejoin="round"/>
  <polygon points="32,6 50,16 32,16" fill="#fff" fill-opacity="0.35"/>
  <polygon points="14,16 32,16 32,46 14,36" fill="#000" fill-opacity="0.1"/>
  <polygon points="32,18 40,22 40,30 32,34 24,30 24,22" fill="#5e3a0a" fill-opacity="0.55"/>
  <polygon points="14,38 24,32 24,42 14,48 4,42 4,32" fill="url(#hex)" stroke="#5e3a0a" stroke-width="1.2"/>
  <polygon points="14,38 24,42 14,48 4,42" fill="#000" fill-opacity="0.15"/>
  <polygon points="50,38 60,32 60,42 50,48 40,42 40,32" fill="url(#hex)" stroke="#5e3a0a" stroke-width="1.2"/>
  <polygon points="50,38 60,32 60,42 50,48" fill="#000" fill-opacity="0.15"/>
  <polygon points="32,46 42,52 42,60 32,60 22,60 22,52" fill="url(#hex)" stroke="#5e3a0a" stroke-width="1.2" stroke-dasharray="3,2"/>
  <ellipse cx="50" cy="14" rx="3" ry="2" fill="#3a1a06" transform="rotate(20 50 14)"/>
  <ellipse cx="50" cy="14" rx="3" ry="2" fill="#fff" fill-opacity="0.4" transform="rotate(20 50 14)"/>
  <line x1="48" y1="11" x2="46" y2="6" stroke="#3a1a06" stroke-width="1"/>
  <line x1="52" y1="11" x2="54" y2="6" stroke="#3a1a06" stroke-width="1"/>
  <text x="32" y="26" text-anchor="middle" font-family="monospace" font-size="6" fill="#fff" font-weight="bold">FUZZ</text>
</svg>
