<svg xmlns="http://www.w3.org/2000/svg" viewBox="0 0 64 64">
  <defs>
    <radialGradient id="wpDisk" cx="0.5" cy="0.5" r="0.5">
      <stop offset="0" stop-color="#21759b"/>
      <stop offset="1" stop-color="#0a2a3d"/>
    </radialGradient>
    <linearGradient id="wpLens" x1="0" y1="0" x2="1" y2="1">
      <stop offset="0" stop-color="#a8eaff" stop-opacity="0.55"/>
      <stop offset="1" stop-color="#22c55e" stop-opacity="0.25"/>
    </linearGradient>
  </defs>
  <rect x="0" y="0" width="64" height="64" fill="#0a0a0a"/>
  <g font-family="monospace" font-size="2.4" fill="#22c55e" opacity="0.5">
    <text x="2" y="6">WP/6.4.2</text>
    <text x="2" y="10">/wp-login.php</text>
    <text x="2" y="14">xmlrpc.php OPEN</text>
    <text x="2" y="58">vuln: revslider</text>
    <text x="2" y="62">CVE-2024-31210</text>
  </g>
  <g transform="translate(24 30)">
    <circle cx="0" cy="0" r="14" fill="url(#wpDisk)" stroke="#0a2a3d" stroke-width="1.2"/>
    <g stroke="#9be6ff" stroke-width="1.4" stroke-linecap="round" fill="none">
      <line x1="0" y1="-13" x2="0" y2="13"/>
      <line x1="-13" y1="0" x2="13" y2="0"/>
      <path d="M -10 -8 Q 0 -3 10 -8"/>
      <path d="M -10 8 Q 0 3 10 8"/>
    </g>
    <text x="0" y="2.4" text-anchor="middle" font-family="monospace" font-size="6.4" fill="#fff" font-weight="bold">W</text>
  </g>
  <g transform="translate(40 38)">
    <circle cx="0" cy="0" r="10" fill="url(#wpLens)" stroke="#fde047" stroke-width="1.8"/>
    <circle cx="0" cy="0" r="10" fill="none" stroke="#fff" stroke-width="0.5" opacity="0.5"/>
    <line x1="7" y1="7" x2="14" y2="14" stroke="#fde047" stroke-width="2.6" stroke-linecap="round"/>
    <text x="0" y="2" text-anchor="middle" font-family="monospace" font-size="6" fill="#dc2626" font-weight="bold">!</text>
  </g>
  <g font-family="monospace" font-size="2.6" font-weight="bold">
    <text x="44" y="14" fill="#dc2626">[CVE]</text>
    <text x="44" y="18" fill="#fde047">XSS</text>
    <text x="44" y="22" fill="#fde047">RCE</text>
  </g>
  <text x="32" y="60" text-anchor="middle" font-family="monospace" font-size="3.6" fill="#21759b" font-weight="bold">WPScan</text>
</svg>
